<svg xmlns="http://www.w3.org/2000/svg" width="512" height="512" viewBox="0 0 512 512" aria-hidden="true" style="display:block;overflow:visible"><defs><linearGradient id="cbTop" x1="0" y1="0" x2="0.2" y2="1"><stop offset="0" stop-color="#FFC48A"></stop><stop offset="0.55" stop-color="#FF7A18"></stop><stop offset="1" stop-color="#C25E0B"></stop></linearGradient><linearGradient id="cbBottom" x1="0" y1="0" x2="0.2" y2="1"><stop offset="0" stop-color="#FFB472"></stop><stop offset="1" stop-color="#B4560A"></stop></linearGradient><linearGradient id="cbCheese" x1="0" y1="0" x2="0" y2="1"><stop offset="0" stop-color="#FFE27A"></stop><stop offset="1" stop-color="#FFC93C"></stop></linearGradient><linearGradient id="cbPatty" x1="0" y1="0" x2="0" y2="1"><stop offset="0" stop-color="#8B5130"></stop><stop offset="1" stop-color="#5A2F18"></stop></linearGradient><linearGradient id="cbLeaf" x1="0" y1="0" x2="0" y2="1"><stop offset="0" stop-color="#7FD35A"></stop><stop offset="1" stop-color="#3F7C2A"></stop></linearGradient></defs><g><ellipse cx="256" cy="286" rx="212" ry="150" fill="#FF7A18" opacity="0.14"></ellipse><path d="M104 214v-10c0-62 68-104 152-104s152 42 152 104v10c0 11-9 20-20 20H124c-11 0-20-9-20-20Z" fill="url(#cbTop)"></path><path d="M138 154c24-26 60-40 98-40-34 14-60 34-78 58-10 14-24 12-26-4-1-6 1-11 6-14Z" fill="#ffffff" opacity="0.18"></path><g fill="#FFF6E6" opacity="0.92"><ellipse cx="176" cy="180" rx="15.5" ry="8.6" transform="rotate(-16 176 180)"></ellipse><ellipse cx="240" cy="156" rx="15.5" ry="8.6" transform="rotate(-5 240 156)"></ellipse><ellipse cx="270" cy="196" rx="15.5" ry="8.6" transform="rotate(3 270 196)"></ellipse><ellipse cx="306" cy="164" rx="15.5" ry="8.6" transform="rotate(9 306 164)"></ellipse><ellipse cx="352" cy="192" rx="15.5" ry="8.6" transform="rotate(17 352 192)"></ellipse></g><path d="M106 236h300c0 15-13 26-29 26H135c-16 0-29-11-29-26Z" fill="url(#cbLeaf)"></path><path d="M112 262h288c9 0 16 7 16 16v6H96v-6c0-9 7-16 16-16Z" fill="url(#cbCheese)"></path><path d="M96 286h320l-32 24-32-24h-192l-32 24-32-24Z" fill="url(#cbCheese)"></path><rect x="122" y="310" width="268" height="46" rx="23" fill="url(#cbPatty)"></rect><rect x="136" y="316" width="240" height="9" rx="4.5" fill="#ffffff" opacity="0.14"></rect><path d="M126 362h260c11 0 20 9 20 20 0 24-22 40-52 40H158c-30 0-52-16-52-40 0-11 9-20 20-20Z" fill="url(#cbBottom)"></path></g></svg>